<?xml version="1.0" encoding="UTF-8" standalone="no"?>
<!-- Created with Inkscape (http://www.inkscape.org/) -->

<svg
   version="1.1"
   id="svg840"
   width="512"
   height="512"
   viewBox="0 0 512 512"
   sodipodi:docname="jellyfish.svg"
   inkscape:version="1.1.1 (c3084ef, 2021-09-22)"
   xmlns:inkscape="http://www.inkscape.org/namespaces/inkscape"
   xmlns:sodipodi="http://sodipodi.sourceforge.net/DTD/sodipodi-0.dtd"
   xmlns="http://www.w3.org/2000/svg"
   xmlns:svg="http://www.w3.org/2000/svg">
  <defs
     id="defs844">
    <filter
       style="color-interpolation-filters:sRGB;"
       inkscape:label="Colorize"
       id="filter1598"
       x="0"
       y="0"
       width="1"
       height="1">
      <feColorMatrix
         values="1 0 0 0 0 0 1 0 0 0 0 0 1 0 0 0 0 0 1 0"
         id="feColorMatrix1596"
         result="fbSourceGraphic" />
      <feColorMatrix
         result="fbSourceGraphicAlpha"
         in="fbSourceGraphic"
         values="0 0 0 -1 0 0 0 0 -1 0 0 0 0 -1 0 0 0 0 1 0"
         id="feColorMatrix1618" />
      <feColorMatrix
         id="feColorMatrix1620"
         values="1 0 0 0 0 0 1 0 0 0 0 0 1 0 0 0 0 0 1 0"
         in="fbSourceGraphic"
         result="fbSourceGraphic" />
      <feColorMatrix
         result="fbSourceGraphicAlpha"
         in="fbSourceGraphic"
         values="0 0 0 -1 0 0 0 0 -1 0 0 0 0 -1 0 0 0 0 1 0"
         id="feColorMatrix1640" />
      <feColorMatrix
         id="feColorMatrix1642"
         values="1 0 0 0 0 0 1 0 0 0 0 0 1 0 0 0 0 0 1 0"
         in="fbSourceGraphic"
         result="fbSourceGraphic" />
      <feColorMatrix
         result="fbSourceGraphicAlpha"
         in="fbSourceGraphic"
         values="0 0 0 -1 0 0 0 0 -1 0 0 0 0 -1 0 0 0 0 1 0"
         id="feColorMatrix2240" />
      <feComposite
         in2="fbSourceGraphic"
         id="feComposite2242"
         operator="arithmetic"
         k1="0.808383"
         k2="3.68263"
         result="composite1"
         in="fbSourceGraphic" />
      <feColorMatrix
         id="feColorMatrix2244"
         in="composite1"
         values="1"
         type="saturate"
         result="colormatrix1" />
      <feFlood
         id="feFlood2246"
         flood-opacity="0.231373"
         flood-color="rgb(255,255,255)"
         result="flood1" />
      <feBlend
         in2="colormatrix1"
         id="feBlend2248"
         in="flood1"
         mode="multiply"
         result="blend1" />
      <feBlend
         in2="blend1"
         id="feBlend2250"
         mode="screen"
         result="blend2" />
      <feColorMatrix
         id="feColorMatrix2252"
         in="blend2"
         values="1"
         type="saturate"
         result="colormatrix2" />
      <feComposite
         in2="fbSourceGraphic"
         id="feComposite2254"
         in="colormatrix2"
         operator="in"
         k2="1"
         result="fbSourceGraphic" />
      <feColorMatrix
         result="fbSourceGraphicAlpha"
         in="fbSourceGraphic"
         values="0 0 0 -1 0 0 0 0 -1 0 0 0 0 -1 0 0 0 0 1 0"
         id="feColorMatrix2274" />
      <feComposite
         in2="fbSourceGraphic"
         id="feComposite2276"
         operator="arithmetic"
         k1="0.808383"
         k2="3.68263"
         result="composite1"
         in="fbSourceGraphic" />
      <feColorMatrix
         id="feColorMatrix2278"
         in="composite1"
         values="1"
         type="saturate"
         result="colormatrix1" />
      <feFlood
         id="feFlood2280"
         flood-opacity="0.231373"
         flood-color="rgb(255,255,255)"
         result="flood1" />
      <feBlend
         in2="colormatrix1"
         id="feBlend2282"
         in="flood1"
         mode="multiply"
         result="blend1" />
      <feBlend
         in2="blend1"
         id="feBlend2284"
         mode="screen"
         result="blend2" />
      <feColorMatrix
         id="feColorMatrix2286"
         in="blend2"
         values="1"
         type="saturate"
         result="colormatrix2" />
      <feComposite
         in2="fbSourceGraphic"
         id="feComposite2288"
         in="colormatrix2"
         operator="in"
         k2="1"
         result="fbSourceGraphic" />
      <feColorMatrix
         result="fbSourceGraphicAlpha"
         in="fbSourceGraphic"
         values="0 0 0 -1 0 0 0 0 -1 0 0 0 0 -1 0 0 0 0 1 0"
         id="feColorMatrix2308" />
      <feComposite
         in2="fbSourceGraphic"
         id="feComposite2310"
         operator="arithmetic"
         k1="0.808383"
         k2="3.68263"
         result="composite1"
         in="fbSourceGraphic" />
      <feColorMatrix
         id="feColorMatrix2312"
         in="composite1"
         values="1"
         type="saturate"
         result="colormatrix1" />
      <feFlood
         id="feFlood2314"
         flood-opacity="0.231373"
         flood-color="rgb(255,255,255)"
         result="flood1" />
      <feBlend
         in2="colormatrix1"
         id="feBlend2316"
         in="flood1"
         mode="multiply"
         result="blend1" />
      <feBlend
         in2="blend1"
         id="feBlend2318"
         mode="screen"
         result="blend2" />
      <feColorMatrix
         id="feColorMatrix2320"
         in="blend2"
         values="1"
         type="saturate"
         result="colormatrix2" />
      <feComposite
         in2="fbSourceGraphic"
         id="feComposite2322"
         in="colormatrix2"
         operator="in"
         k2="1"
         result="fbSourceGraphic" />
      <feColorMatrix
         result="fbSourceGraphicAlpha"
         in="fbSourceGraphic"
         values="0 0 0 -1 0 0 0 0 -1 0 0 0 0 -1 0 0 0 0 1 0"
         id="feColorMatrix2342" />
      <feComposite
         in2="fbSourceGraphic"
         id="feComposite2344"
         operator="arithmetic"
         k1="0.808383"
         k2="3.68263"
         result="composite1"
         in="fbSourceGraphic" />
      <feColorMatrix
         id="feColorMatrix2346"
         in="composite1"
         values="1"
         type="saturate"
         result="colormatrix1" />
      <feFlood
         id="feFlood2348"
         flood-opacity="0.231373"
         flood-color="rgb(255,255,255)"
         result="flood1" />
      <feBlend
         in2="colormatrix1"
         id="feBlend2350"
         in="flood1"
         mode="multiply"
         result="blend1" />
      <feBlend
         in2="blend1"
         id="feBlend2352"
         mode="screen"
         result="blend2" />
      <feColorMatrix
         id="feColorMatrix2354"
         in="blend2"
         values="1"
         type="saturate"
         result="colormatrix2" />
      <feComposite
         in2="fbSourceGraphic"
         id="feComposite2356"
         in="colormatrix2"
         operator="in"
         k2="1"
         result="composite2" />
    </filter>
  </defs>
  <sodipodi:namedview
     id="namedview842"
     pagecolor="#ffffff"
     bordercolor="#666666"
     borderopacity="1.0"
     inkscape:pageshadow="2"
     inkscape:pageopacity="0.0"
     inkscape:pagecheckerboard="0"
     showgrid="false"
     inkscape:zoom="1.0507812"
     inkscape:cx="256"
     inkscape:cy="256"
     inkscape:window-width="1920"
     inkscape:window-height="1080"
     inkscape:window-x="0"
     inkscape:window-y="0"
     inkscape:window-maximized="0"
     inkscape:current-layer="g846" />
  <g
     inkscape:groupmode="layer"
     inkscape:label="Image"
     id="g846">
    <path
       style="fill:#000000"
       d="m 246.20234,500.55152 c -7.43277,-2.00148 -12.81001,-4.96253 -18.24641,-10.04765 -3.71777,-3.47754 -5.45204,-4.40721 -8.22148,-4.40721 -17.14791,0 -34.75119,-10.99699 -42.32251,-26.4394 -10.50243,-21.42068 -10.97629,-47.37937 -1.32215,-72.42908 6.22699,-16.15725 7.92631,-22.74612 8.55446,-33.16872 0.71929,-11.93464 -1.22215,-22.23853 -6.84473,-36.32738 -5.35116,-13.40872 -7.78399,-23.17791 -8.521,-34.21656 -0.8333,-12.48084 1.57069,-27.49867 6.44885,-40.28634 0.40776,-1.06892 -0.47416,-0.71178 -2.55459,1.03451 -4.5336,3.80545 -12.72363,7.44816 -19.91372,8.85711 l -6.1926,1.21349 -3.47673,8.68655 c -8.92821,22.30697 -8.77756,40.15802 0.53584,63.49498 11.0476,27.68242 11.529,48.91471 1.68798,74.44932 -6.22699,16.15725 -7.92631,22.74612 -8.55446,33.16872 -0.77311,12.82772 1.25739,22.34058 8.80182,41.23641 3.29836,8.26108 5.6356,15.36458 5.19389,15.78557 -0.91605,0.87304 -13.54156,6.06792 -13.82682,5.68916 -1.22191,-1.62235 -12.78415,-32.91282 -13.95464,-37.76492 -4.26681,-17.6874 -2.67639,-36.9291 4.61645,-55.8519 6.22699,-16.15725 7.92631,-22.74612 8.55446,-33.16872 0.71929,-11.93464 -1.22215,-22.23853 -6.84473,-36.32738 -10.76905,-26.98466 -11.50442,-48.68046 -2.46566,-72.74436 l 3.34911,-8.91633 -4.46485,-1.97501 c -11.28506,-4.99192 -21.18856,-15.61492 -25.47251,-27.3231 -2.163316,-5.91244 -2.287726,-6.04831 -2.908646,-3.17662 -2.37689,10.99286 -0.0124,27.13057 6.288606,42.91916 5.52356,13.84059 7.81836,23.31194 8.4997,35.08084 0.72528,12.52781 -0.71402,22.06595 -5.28147,35 -8.542766,24.19127 -9.488056,27.70123 -10.080816,37.43103 -0.78512,12.88715 1.23207,22.39308 8.744806,41.20952 3.26913,8.1879 5.94388,15.22022 5.94388,15.62738 0,0.7207 -14.075036,6.55119 -14.498286,6.00582 -0.97106,-1.25124 -12.70655,-32.59413 -13.95614,-37.27375 -0.8812,-3.3 -1.86698,-10.725 -2.19063,-16.5 -0.75859,-13.53555 1.30189,-25.64612 6.78318,-39.86848 7.56217,-19.62166 8.1483,-22.27937 8.18899,-37.13152 0.0404,-14.74363 0.67989,-12.01096 -9.71182,-41.5 -7.84266,-22.25546 -7.4456,-41.81076 1.32132,-65.07537 3.67753,-9.75898 3.80607,-10.4803 2.51345,-14.10479 -2.42036,-6.78671 -1.39564,-24.13668 2.5398,-43.0026 6.98886,-33.50358 27.050746,-67.549062 53.288276,-90.431436 20.83449,-18.170253 49.29291,-32.521331 75.22186,-37.933057 26.29006,-5.4870949 49.20739,-5.1738359 75.06184,1.026027 29.88897,7.167334 56.80199,22.354778 78.93816,44.546048 29.72007,29.794054 46.79827,68.034578 49.11485,109.975178 0.46987,8.50679 0.26355,11.97882 -0.91029,15.31856 -1.49326,4.24855 -1.45503,4.48531 2.35834,14.60479 8.70272,23.09423 9.11419,43.1093 1.33784,65.07665 -8.51431,24.05202 -9.4963,27.69511 -10.08943,37.43103 -0.74151,12.17126 1.13584,21.92712 7.2078,37.45614 6.66905,17.05608 7.8731,22.96122 7.8731,38.61283 0,16.35394 -1.16628,21.58875 -9.57219,42.96445 -3.3601,8.54455 -6.20489,15.65874 -6.32174,15.8093 -0.42324,0.54537 -14.49828,-5.28512 -14.49828,-6.00582 0,-0.40716 2.6398,-7.38401 5.86623,-15.50411 7.84319,-19.73934 8.65067,-23.35469 8.54611,-38.26382 -0.0947,-13.49662 0.31389,-11.80775 -9.79705,-40.5 -7.91083,-22.4489 -7.45049,-42.08719 1.5329,-65.39521 7.71052,-20.00548 9.9681,-32.01476 8.39108,-44.63679 l -0.72543,-5.8061 -2.80262,6.64299 c -5.23247,12.4024 -14.1768,21.84098 -25.15291,26.54282 l -4.64169,1.98836 3.37515,8.98566 c 9.06635,24.13734 8.3405,45.80128 -2.43962,72.81369 -5.62258,14.08885 -7.56402,24.39274 -6.84473,36.32738 0.62815,10.4226 2.32747,17.01147 8.55446,33.16872 7.29284,18.9228 8.88326,38.1645 4.61645,55.8519 -1.17049,4.8521 -12.73273,36.14257 -13.95464,37.76492 -0.28526,0.37876 -12.91077,-4.81612 -13.82682,-5.68916 -0.44171,-0.42099 1.88573,-7.49993 5.17209,-15.73098 3.28637,-8.23105 6.68527,-18.40318 7.55313,-22.60472 3.1638,-15.31695 1.49518,-29.37401 -5.59599,-47.14264 -11.0476,-27.68242 -11.529,-48.91471 -1.68798,-74.44932 6.22699,-16.15725 7.92631,-22.74612 8.55446,-33.16872 0.70019,-11.61785 -1.22129,-22.27299 -6.30879,-34.98403 l -3.49858,-8.74114 -6.09621,-1.19936 c -7.59624,-1.49447 -15.23423,-4.83429 -19.73823,-8.63083 -2.13029,-1.79567 -3.21109,-2.28318 -2.82647,-1.27492 4.87816,12.78767 7.28215,27.8055 6.44885,40.28634 -0.73701,11.03865 -3.16984,20.80784 -8.521,34.21656 -5.62258,14.08885 -7.56402,24.39274 -6.84473,36.32738 0.62815,10.4226 2.32747,17.01147 8.55446,33.16872 5.40983,14.03694 7.54188,26.37649 6.80215,39.36848 -1.49973,26.34034 -11.83454,45.57112 -29.01937,53.99865 -7.17543,3.51886 -14.89711,5.50135 -21.42744,5.50135 -2.76944,0 -4.50371,0.92967 -8.22148,4.40721 -10.65065,9.96245 -25.8201,13.79732 -39.74507,10.04765 z m 23.41763,-17.78678 c 2.82114,-1.42957 6.51163,-4.27619 8.20111,-6.32581 7.05004,-8.55293 11.75014,-26.92444 10.82317,-42.30507 -0.62815,-10.4226 -2.32747,-17.01147 -8.55446,-33.16872 -9.84102,-25.53461 -9.35962,-46.7669 1.68798,-74.44932 9.49584,-23.79409 9.5017,-40.95348 0.0222,-64.83832 -2.20051,-5.54446 -4.36271,-10.45447 -4.80489,-10.91114 -0.44218,-0.45666 -2.99533,-0.0849 -5.67367,0.82624 -7.5528,2.56924 -16.85446,2.96698 -24.3697,1.04206 -10.77505,-2.75988 -9.83973,-3.30785 -14.61442,8.56196 -5.82932,14.49157 -7.80601,24.78609 -7.07816,36.86284 0.62815,10.4226 2.32747,17.01147 8.55446,33.16872 9.84803,25.55281 9.36131,46.76252 -1.70973,74.5039 -5.50567,13.79591 -7.5396,24.35709 -6.89338,35.7938 1.01077,17.88822 6.66167,32.29846 15.18873,38.73244 2.72113,2.05319 6.54613,4.18702 8.5,4.74184 5.84864,1.66077 14.97503,0.67619 20.7208,-2.23542 z m -55.6683,-14.00812 c 0,-0.18702 -0.9213,-3.89952 -2.04733,-8.25 -2.64043,-10.20142 -3.5376,-25.76921 -2.04067,-35.40996 0.64049,-4.125 2.75364,-12 4.69587,-17.5 10.23314,-28.97805 9.73469,-26.88765 9.77642,-41 0.0426,-14.4182 -0.27306,-15.92384 -7.33864,-35 -6.87122,-18.55142 -7.55031,-21.98602 -7.51328,-38 0.0369,-15.94505 1.28149,-21.59625 8.96784,-40.71851 2.47488,-6.15707 4.49979,-11.7538 4.49979,-12.43719 0,-4.71464 -20.20196,-12.29683 -24.18985,-9.07892 -1.78074,1.43692 -9.9079,21.69678 -11.92792,29.73462 -0.85502,3.40219 -1.33477,10.26775 -1.2578,18 0.13647,13.71038 0.91805,17.14024 8.22738,36.10479 9.72061,25.22077 9.41382,45.97986 -1.0773,72.89521 -6.3638,16.32658 -7.28182,20.71977 -7.2093,34.5 0.12149,23.08653 7.00896,37.66798 20.83262,44.10473 4.62308,2.15265 7.60217,2.95805 7.60217,2.05523 z m 93.60217,-2.05523 c 13.69234,-6.3756 20.8285,-21.45472 20.87248,-44.10473 0.0262,-13.47445 -0.9137,-18.10764 -6.66886,-32.87537 -5.89784,-15.13384 -7.83774,-23.05688 -8.47762,-34.62463 -0.72302,-13.07072 0.67234,-22.45293 5.2797,-35.5 10.0881,-28.56731 9.70982,-27.00476 9.80447,-40.5 0.0534,-7.61328 -0.4527,-14.65016 -1.29457,-18 -1.53033,-6.0893 -9.84635,-27.74919 -11.44474,-29.80895 -2.03302,-2.61983 -16.21997,1.11365 -21.73045,5.71865 l -3.44258,2.87689 1.66627,4.35671 c 0.91644,2.39618 3.49478,9.14088 5.72963,14.98822 9.80949,25.66588 9.31501,46.79327 -1.74375,74.5039 -5.64804,14.15265 -7.578,24.43504 -6.82166,36.34411 0.66709,10.50369 2.40404,17.25327 8.53139,33.15199 7.54926,19.58815 8.95643,38.84554 4.18545,57.27844 -1.12603,4.35048 -2.04733,8.06298 -2.04733,8.25 0,0.90282 2.97909,0.0974 7.60217,-2.05523 z M 154.95167,235.85363 c 4.63423,-1.4038 7.42429,-3.21643 13.8895,-9.02366 9.20104,-8.26463 20.47923,-12.74233 32.042,-12.72144 12.41402,0.0224 22.52743,4.16136 32.99884,13.50482 7.01378,6.25827 10.88903,8.25912 18.25,9.42273 10.3146,1.63052 19.31617,-1.53675 28.6738,-10.08909 9.12684,-8.34142 20.41552,-12.85953 32.07736,-12.83846 12.52843,0.0226 22.42735,4.12223 33.41038,13.83676 7.78046,6.88186 13.72688,9.35137 22.51744,9.35137 10.50533,0 18.68617,-3.95978 24.83438,-12.02063 3.89024,-5.10045 7.3063,-15.51965 7.3063,-22.28471 v -4.89466 H 256.80733 112.66299 l 0.56647,7.49004 c 1.74207,23.03406 20.55229,36.67974 41.72221,30.26693 z m 251.68979,-56.35585 c 2.5745,-2.5745 2.59269,-2.70094 1.93831,-13.47515 -2.44018,-40.17695 -18.64481,-74.818175 -47.9904,-102.590774 -20.55472,-19.452942 -44.83688,-32.118689 -73.1377,-38.149139 -10.2788,-2.190249 -14.5818,-2.562376 -30,-2.59443 -13.29772,-0.02765 -20.35114,0.425275 -27,1.73375 -33.62736,6.617759 -60.28417,21.094552 -83.59543,45.39906 -25.16531,26.237543 -39.42839,59.312913 -41.5809,96.424033 -0.60949,10.50815 -0.58335,10.68276 1.9839,13.25 l 2.60152,2.60153 h 147.09091 147.09091 z m -253.18979,-14.2767 c -8.90326,-2.36327 -16.73374,-8.79018 -21.20954,-17.40785 -2.31606,-4.45931 -2.71253,-6.45046 -2.73116,-13.71657 -0.02,-7.78385 0.26448,-9.03091 3.37616,-14.80139 3.78399,-7.01725 6.92148,-10.04761 14.4571,-13.96345 4.35553,-2.26334 6.35879,-2.65406 13.60744,-2.65406 7.24865,0 9.25191,0.39072 13.60744,2.65406 7.54178,3.91904 10.67651,6.94963 14.44333,13.96345 3.02449,5.63162 3.38765,7.15171 3.41671,14.30139 0.0268,6.58628 -0.43044,8.98721 -2.5873,13.58648 -5.13877,10.9579 -14.97503,17.74418 -26.72792,18.44026 -3.65875,0.2167 -8.00226,0.0357 -9.65226,-0.40232 z m 13.9003,-16.51831 c 1.83483,-0.76665 4.51664,-2.94173 5.95958,-4.83352 5.16149,-6.76706 4.72609,-14.49556 -1.16554,-20.68896 -6.37838,-6.70506 -15.7239,-6.78937 -22.31199,-0.20128 -12.40407,12.40408 1.28547,32.50612 17.51795,25.72376 z m 25.5997,-47.91348 c -4.90822,-1.547045 -13.27886,-10.21481 -14.78388,-15.308655 -2.77033,-9.376351 -0.81722,-16.85065 6.25,-23.917864 10.11736,-10.117368 22.9504,-10.117368 33.06776,0 7.76444,7.764437 9.50504,16.679669 5.08283,26.033884 -5.45205,11.5326 -17.64785,16.965175 -29.61671,13.192635 z m 13.54545,-17.14718 c 4.9602,-4.960193 1.44542,-13.545455 -5.54545,-13.545455 -1.94837,0 -3.99822,0.907308 -5.54545,2.454545 -1.54724,1.547238 -2.45455,3.597082 -2.45455,5.545455 0,1.948373 0.90731,3.998217 2.45455,5.545455 1.54723,1.547237 3.59708,2.454545 5.54545,2.454545 1.94837,0 3.99822,-0.907308 5.54545,-2.454545 z"
       id="path2376" />
  </g>
</svg>
