<?xml version="1.0" standalone="no"?>
<!DOCTYPE svg PUBLIC "-//W3C//DTD SVG 20010904//EN"
 "http://www.w3.org/TR/2001/REC-SVG-20010904/DTD/svg10.dtd">
<svg version="1.0" xmlns="http://www.w3.org/2000/svg"
 width="700.000000pt" height="700.000000pt" viewBox="0 0 700.000000 700.000000"
 preserveAspectRatio="xMidYMid meet">
<metadata>
Created by potrace 1.14, written by Peter Selinger 2001-2017
</metadata>
<g transform="translate(0.000000,700.000000) scale(0.100000,-0.100000)"
fill="#000000" stroke="none">
<path d="M3407 6914 c-1 -1 -36 -4 -77 -7 -533 -42 -1072 -293 -1444 -672
-343 -349 -573 -805 -641 -1270 -4 -22 -8 -51 -11 -65 -13 -73 -16 -299 -4
-355 8 -33 15 -65 16 -72 1 -7 -18 -70 -43 -140 -129 -371 -128 -587 3 -960
106 -301 106 -302 107 -473 2 -208 -4 -244 -64 -411 -126 -355 -139 -414 -134
-629 2 -80 8 -173 14 -206 9 -52 71 -240 109 -334 6 -14 29 -74 52 -133 46
-118 42 -114 115 -82 96 42 125 56 125 61 0 6 -94 251 -110 289 -22 48 -62
185 -75 249 -16 83 -18 267 -4 346 6 30 43 154 84 275 107 323 106 318 111
500 5 202 -15 323 -86 515 -98 266 -122 370 -122 531 0 92 9 152 21 144 5 -2
18 -31 29 -63 56 -152 197 -302 350 -372 62 -28 62 -14 3 -180 -67 -192 -87
-360 -65 -545 18 -146 31 -202 84 -350 16 -44 40 -111 53 -150 51 -143 61
-202 61 -355 0 -176 -11 -233 -99 -477 -86 -242 -107 -346 -107 -533 0 -136
14 -219 62 -362 38 -114 148 -409 156 -417 5 -6 60 13 137 47 69 31 71 9 -18
247 -35 94 -71 196 -80 228 -48 165 -51 326 -11 513 9 42 35 124 90 278 74
205 97 336 91 506 -2 69 -11 157 -20 195 -9 39 -18 80 -21 93 -2 12 -25 80
-50 150 -95 267 -121 383 -118 529 3 143 27 257 88 408 20 49 36 94 36 101 0
7 38 21 92 33 96 22 210 71 267 115 19 14 36 24 38 22 2 -2 -7 -39 -21 -82
-14 -44 -33 -119 -42 -169 -18 -100 -26 -318 -13 -374 4 -20 11 -56 14 -81 4
-24 8 -47 10 -51 2 -3 7 -20 10 -38 3 -18 32 -107 65 -197 89 -246 104 -315
104 -469 -1 -156 -13 -212 -99 -460 -84 -241 -107 -352 -108 -515 -2 -188 19
-305 80 -460 97 -243 324 -408 584 -425 57 -4 87 -15 120 -47 87 -83 197 -141
314 -163 34 -6 160 -7 190 -1 112 22 205 68 302 147 65 54 77 60 128 64 305
23 521 196 618 496 57 173 74 405 42 582 -15 89 -37 159 -119 392 -95 273
-100 494 -14 735 88 250 109 315 128 410 20 97 29 303 17 365 -3 11 -8 43 -12
70 -5 28 -9 52 -10 55 0 3 -7 30 -14 60 -7 30 -21 79 -31 108 -10 28 -16 52
-14 52 2 0 25 -15 51 -34 62 -44 167 -90 228 -101 17 -2 44 -9 62 -14 17 -5
34 -7 37 -4 14 14 98 -215 126 -342 15 -70 18 -118 16 -229 -4 -162 -16 -215
-100 -448 -55 -152 -89 -277 -101 -373 -8 -63 -8 -214 0 -280 11 -90 56 -255
105 -390 80 -216 92 -272 96 -430 4 -161 -10 -242 -71 -410 -118 -322 -122
-335 -100 -348 28 -17 148 -66 162 -66 17 -1 43 63 154 374 87 244 100 426 48
685 -12 58 -39 146 -113 353 -24 70 -45 131 -45 135 -1 13 -13 96 -18 117 -8
42 -4 243 7 290 7 28 14 61 16 75 3 14 21 70 40 125 122 344 145 447 139 645
-1 74 -6 151 -10 170 -13 71 -55 217 -85 294 -17 43 -29 80 -28 82 2 1 26 12
53 24 141 59 257 176 336 338 28 57 54 101 56 98 3 -3 7 -58 9 -123 4 -170
-17 -273 -106 -517 -84 -233 -104 -329 -104 -506 0 -148 23 -285 69 -410 51
-138 118 -342 126 -385 11 -57 13 -274 3 -355 -8 -67 -44 -178 -118 -367 -79
-203 -78 -188 -14 -217 84 -39 130 -56 137 -52 4 3 26 53 50 113 24 59 50 122
57 139 26 60 84 240 98 309 11 52 14 119 12 260 -2 105 -6 204 -10 220 -17 73
-32 120 -91 285 -84 235 -99 304 -98 465 0 149 11 200 97 451 62 181 83 252
92 309 3 22 9 59 14 83 8 47 5 280 -5 311 -3 10 -7 32 -9 48 -7 49 -25 114
-73 251 l-46 133 16 72 c15 69 16 222 3 317 -3 19 -8 58 -11 85 -25 212 -107
474 -217 695 -271 546 -744 964 -1310 1158 -115 40 -297 85 -393 98 -27 3 -52
7 -55 9 -16 10 -392 27 -403 19z m413 -238 c14 -3 41 -9 60 -12 137 -24 346
-89 484 -152 473 -213 866 -619 1066 -1098 93 -223 142 -447 156 -712 l7 -118
-33 -37 -32 -37 -2012 0 -2012 0 -34 35 c-30 31 -34 40 -34 92 0 66 13 244 18
252 2 3 7 28 10 55 36 269 157 579 317 818 38 56 127 175 154 204 306 336 618
537 1009 649 85 24 248 60 311 68 48 6 538 0 565 -7z m1662 -2418 c4 -40 -15
-146 -37 -211 -61 -181 -208 -288 -399 -290 -126 -1 -192 30 -371 174 -60 48
-171 104 -240 123 -64 17 -203 20 -275 6 -116 -22 -207 -70 -346 -181 -146
-118 -274 -150 -428 -105 -57 17 -132 65 -231 147 -73 61 -178 114 -265 135
-59 14 -221 21 -238 10 -4 -2 -24 -7 -45 -10 -40 -6 -143 -47 -186 -74 -27
-16 -157 -117 -178 -138 -25 -25 -83 -55 -131 -69 -228 -68 -455 48 -534 272
-19 56 -24 81 -33 181 l-5 62 1969 0 1970 0 3 -32z m-2594 -438 c70 -25 139
-66 152 -90 8 -15 5 -34 -14 -82 -77 -196 -129 -349 -143 -417 -19 -96 -23
-362 -7 -461 12 -77 26 -122 114 -370 67 -192 71 -211 75 -376 4 -180 -8 -245
-85 -464 -110 -311 -115 -337 -114 -560 1 -141 5 -182 27 -280 15 -63 27 -118
27 -122 0 -16 -36 -7 -107 28 -185 92 -274 285 -275 604 -1 177 4 199 121 533
65 184 85 302 84 477 -1 140 -30 275 -102 474 -94 261 -102 298 -102 481 0
156 8 217 43 320 49 148 118 304 141 320 26 19 84 13 165 -15z m1445 -23 c58
-121 136 -340 146 -407 3 -25 6 -121 5 -215 l0 -170 -82 -240 c-105 -308 -114
-349 -117 -515 -4 -212 16 -315 110 -569 83 -222 87 -245 90 -426 5 -277 -45
-439 -174 -561 -74 -71 -221 -132 -207 -86 89 299 81 560 -25 854 -104 288
-127 397 -123 564 3 128 22 215 88 399 100 276 125 394 121 580 -4 176 -30
285 -133 558 l-60 157 42 34 c22 18 70 45 106 58 84 33 82 33 139 36 l49 3 25
-54z m-488 -359 c100 -257 125 -442 86 -638 -11 -52 -22 -102 -24 -110 -3 -8
-29 -79 -57 -158 -85 -236 -110 -350 -115 -518 -4 -163 23 -299 106 -527 79
-216 101 -312 102 -452 2 -144 -6 -209 -39 -321 -73 -254 -214 -367 -438 -351
-189 13 -330 193 -371 473 -4 21 -8 50 -11 64 -6 34 -6 228 0 238 2 4 7 26 11
49 7 52 38 154 109 358 30 88 57 176 60 195 3 19 8 46 10 60 13 73 17 114 16
205 0 55 -2 114 -5 130 -23 130 -42 204 -81 313 -87 243 -107 313 -119 413 -8
71 -8 181 0 244 7 59 50 222 70 268 7 18 26 63 41 101 40 98 51 103 166 76
109 -26 243 -23 343 8 35 11 67 16 76 11 9 -4 37 -63 64 -131z"/>
<path d="M2659 6247 c-58 -22 -105 -55 -152 -107 -69 -76 -82 -111 -82 -210 1
-99 17 -138 87 -210 90 -93 133 -113 238 -112 223 2 388 247 298 444 -31 66
-110 147 -175 179 -58 28 -160 36 -214 16z m134 -216 c54 -21 77 -104 43 -156
-59 -90 -196 -45 -196 64 0 42 57 101 98 101 17 0 41 -4 55 -9z"/>
<path d="M2095 5590 c-111 -24 -228 -121 -286 -236 -33 -67 -34 -72 -34 -189
0 -113 2 -124 30 -180 17 -32 55 -85 85 -115 99 -101 189 -139 318 -134 156 6
275 73 357 199 52 81 67 141 63 253 -3 87 -7 104 -37 167 -44 89 -116 161
-204 204 -62 30 -78 33 -165 35 -54 1 -110 -1 -127 -4z m190 -227 c137 -64
172 -232 71 -342 -133 -145 -371 -49 -370 148 2 155 162 259 299 194z"/>
</g>
</svg>
